# xmcd
#
# Track frame offsets:
#	150
#	13113
#	36315
#	69942
#	102762
#	120315
#	139023
#	182472
#	210966
#	229191
#	250422
#	268500
#	291921
#	308905
#	332104
#
# Disc length: 4737
#
# Revision: 1
# Processed by: cddbd v1.5.1PL0 Copyright (c) Steve Scherf et al.
# Submitted via: audiograbber 1.80
# Normalized: r0:TDELIM( - )
#
DISCID=cf127f0f
DTITLE=Black Story - CD#3 - Funk
DYEAR=1900
DGENRE=
TTITLE0=Earth, Wind and Fire - Shining star
TTITLE1=Shalamar - A night to remember
TTITLE2=The Whispers - And the beat goes on
TTITLE3=Positive Force - We got the funk
TTITLE4=Stretch - Why did you do it ?
TTITLE5=Cymande - Brother on the side
TTITLE6=The Headhunters - God make me funky
TTITLE7=The last minister - Tribute to the JB Family
TTITLE8=Lakeside - Fantastic Voyage
TTITLE9=Indeep - Last night a Dj saved my life
TTITLE10=Unlimited Touch - I hear the music in the streets
TTITLE11=Delegation - Heartache n°9
TTITLE12=Jocelyn Brown - Somebody else's guy
TTITLE13="D" Train - You are the one for me
TTITLE14=Midnight Star - Midas touch
EXTD=
EXTT0=
EXTT1=
EXTT2=
EXTT3=
EXTT4=
EXTT5=
EXTT6=
EXTT7=
EXTT8=
EXTT9=
EXTT10=
EXTT11=
EXTT12=
EXTT13=
EXTT14=
PLAYORDER=
